<?xml version="1.0" encoding="utf-8"?>
<!-- Generator: Adobe Illustrator 26.3.1, SVG Export Plug-In . SVG Version: 6.00 Build 0)  -->
<svg version="1.1" id="レイヤー_1" xmlns="http://www.w3.org/2000/svg" xmlns:xlink="http://www.w3.org/1999/xlink" x="0px"
	 y="0px" viewBox="0 0 2187 2169" style="enable-background:new 0 0 2187 2169;" xml:space="preserve">
<style type="text/css">
	.st0{fill:#999999;stroke:#000000;stroke-miterlimit:10;}
	.st1{fill:#D34242;fill-opacity:0.3;stroke:#000000;stroke-miterlimit:10;}
	.st2{opacity:0.3;fill:#4ED143;}
	.st3{fill:none;stroke:#000000;stroke-miterlimit:10;}
	.st4{opacity:0.3;fill:#D19B43;}
	.st5{fill:#3A3A3A;stroke:#000000;stroke-miterlimit:10;}
	.st6{fill:#4379D1;fill-opacity:0.3;stroke:#000000;stroke-miterlimit:10;}
	.st7{opacity:0.3;fill:#4379D1;}
	.st8{opacity:0.3;fill:#B345CE;}
	.st9{fill:#D19B43;fill-opacity:0.3;stroke:#000000;stroke-miterlimit:10;}
	.st10{fill:#4ED143;fill-opacity:0.3;stroke:#000000;stroke-miterlimit:10;}
	.st11{fill:#B345CE;fill-opacity:0.3;stroke:#000000;stroke-miterlimit:10;}
</style>
<g>
	<rect x="216" y="216" class="st0" width="72" height="72"/>
	<rect x="288" y="216" class="st0" width="72" height="72"/>
	<rect x="144" y="216" class="st0" width="72" height="72"/>
</g>
<g>
	
		<rect x="216" y="216" transform="matrix(-1.836970e-16 1 -1 -1.836970e-16 504 -8.526513e-13)" class="st1" width="72" height="72"/>
	<rect x="216" y="288" transform="matrix(-1.836970e-16 1 -1 -1.836970e-16 576 72)" class="st1" width="72" height="72"/>
	<rect x="216" y="144" transform="matrix(-1.836970e-16 1 -1 -1.836970e-16 432 -72)" class="st1" width="72" height="72"/>
</g>
<g>
	<rect x="1008" y="216" class="st0" width="72" height="72"/>
	<rect x="1080" y="216" class="st0" width="72" height="72"/>
	<rect x="936" y="216" class="st0" width="72" height="72"/>
</g>
<g>
	<rect x="576" y="216" class="st0" width="72" height="72"/>
	<rect x="648" y="216" class="st0" width="72" height="72"/>
	<rect x="504" y="216" class="st0" width="72" height="72"/>
</g>
<g>
	<rect x="1368" y="216" class="st0" width="72" height="72"/>
	<rect x="1440" y="216" class="st0" width="72" height="72"/>
	<rect x="1296" y="216" class="st0" width="72" height="72"/>
</g>
<g>
	<rect x="1728" y="216" class="st0" width="72" height="72"/>
	<rect x="1800" y="216" class="st0" width="72" height="72"/>
	<rect x="1656" y="216" class="st0" width="72" height="72"/>
</g>
<g>
	<g>
		<g>
			<rect x="1008" y="144" class="st2" width="72" height="72"/>
			<rect x="1008" y="144" class="st3" width="72" height="72"/>
		</g>
		<g>
			<rect x="1008" y="216" class="st2" width="72" height="72"/>
			<rect x="1008" y="216" class="st3" width="72" height="72"/>
		</g>
		<g>
			<rect x="1008" y="72" class="st2" width="72" height="72"/>
			<rect x="1008" y="72" class="st3" width="72" height="72"/>
		</g>
	</g>
</g>
<g>
	<g>
		<g>
			<rect x="576" y="288" class="st4" width="72" height="72"/>
			<rect x="576" y="288" class="st3" width="72" height="72"/>
		</g>
		<g>
			<rect x="576" y="360" class="st4" width="72" height="72"/>
			<rect x="576" y="360" class="st3" width="72" height="72"/>
		</g>
		<g>
			<rect x="576" y="216" class="st4" width="72" height="72"/>
			<rect x="576" y="216" class="st3" width="72" height="72"/>
		</g>
	</g>
</g>
<rect x="1008" y="288" class="st5" width="72" height="72"/>
<rect x="1368" y="288" class="st5" width="72" height="72"/>
<rect x="1728" y="288" class="st5" width="72" height="72"/>
<rect x="1800" y="288" class="st5" width="72" height="72"/>
<rect x="576" y="144" class="st5" width="72" height="72"/>
<g>
	<rect x="1440" y="216" transform="matrix(-1.836970e-16 1 -1 -1.836970e-16 1728 -1224)" class="st6" width="72" height="72"/>
	<rect x="1440" y="288" transform="matrix(-1.836970e-16 1 -1 -1.836970e-16 1800 -1152)" class="st6" width="72" height="72"/>
	<rect x="1440" y="144" transform="matrix(-1.836970e-16 1 -1 -1.836970e-16 1656 -1296)" class="st6" width="72" height="72"/>
</g>
<rect x="1368" y="72" class="st5" width="72" height="72"/>
<rect x="1368" y="144" class="st5" width="72" height="72"/>
<rect x="1728" y="72" class="st5" width="72" height="72"/>
<rect x="1728" y="144" class="st5" width="72" height="72"/>
<g>
	<g>
		<path class="st3" d="M360,297c0,29.9-22.5,54.6-51.4,58.1"/>
		<g>
			<polygon points="301.5,355.5 311.1,350.7 309.1,354.9 311.7,358.8 			"/>
		</g>
	</g>
</g>
<g>
	<rect x="216" y="1224" transform="matrix(-1.836970e-16 1 -1 -1.836970e-16 1512 1008)" class="st0" width="72" height="72"/>
	<rect x="216" y="1296" transform="matrix(-1.836970e-16 1 -1 -1.836970e-16 1584 1080)" class="st0" width="72" height="72"/>
	<rect x="216" y="1152" transform="matrix(-1.836970e-16 1 -1 -1.836970e-16 1440 936)" class="st0" width="72" height="72"/>
</g>
<g>
	<rect x="216" y="1224" class="st1" width="72" height="72"/>
	<rect x="288" y="1224" class="st1" width="72" height="72"/>
	<rect x="144" y="1224" class="st1" width="72" height="72"/>
</g>
<g>
	<rect x="576" y="1224" transform="matrix(-1.836970e-16 1 -1 -1.836970e-16 1872 648)" class="st0" width="72" height="72"/>
	<rect x="576" y="1296" transform="matrix(-1.836970e-16 1 -1 -1.836970e-16 1944 720)" class="st0" width="72" height="72"/>
	<rect x="576" y="1152" transform="matrix(-1.836970e-16 1 -1 -1.836970e-16 1800 576)" class="st0" width="72" height="72"/>
</g>
<g>
	<g>
		<g>
			<rect x="648" y="1224" class="st4" width="72" height="72"/>
			<rect x="648" y="1224" class="st3" width="72" height="72"/>
		</g>
		<g>
			<rect x="720" y="1224" class="st4" width="72" height="72"/>
			<rect x="720" y="1224" class="st3" width="72" height="72"/>
		</g>
		<g>
			<rect x="576" y="1224" class="st4" width="72" height="72"/>
			<rect x="576" y="1224" class="st3" width="72" height="72"/>
		</g>
	</g>
</g>
<g>
	<rect x="1008" y="1224" transform="matrix(-1.836970e-16 1 -1 -1.836970e-16 2304 216)" class="st0" width="72" height="72"/>
	<rect x="1008" y="1296" transform="matrix(-1.836970e-16 1 -1 -1.836970e-16 2376 288)" class="st0" width="72" height="72"/>
	<rect x="1008" y="1152" transform="matrix(-1.836970e-16 1 -1 -1.836970e-16 2232 144)" class="st0" width="72" height="72"/>
</g>
<g>
	<g>
		<g>
			<rect x="936" y="1224" class="st2" width="72" height="72"/>
			<rect x="936" y="1224" class="st3" width="72" height="72"/>
		</g>
		<g>
			<rect x="1008" y="1224" class="st2" width="72" height="72"/>
			<rect x="1008" y="1224" class="st3" width="72" height="72"/>
		</g>
		<g>
			<rect x="864" y="1224" class="st2" width="72" height="72"/>
			<rect x="864" y="1224" class="st3" width="72" height="72"/>
		</g>
	</g>
</g>
<g>
	<rect x="1368" y="1224" transform="matrix(-1.836970e-16 1 -1 -1.836970e-16 2664 -144)" class="st0" width="72" height="72"/>
	<rect x="1368" y="1296" transform="matrix(-1.836970e-16 1 -1 -1.836970e-16 2736 -72)" class="st0" width="72" height="72"/>
	<rect x="1368" y="1152" transform="matrix(-1.836970e-16 1 -1 -1.836970e-16 2592 -216)" class="st0" width="72" height="72"/>
</g>
<g>
	<g>
		<g>
			<rect x="1440" y="1296" class="st7" width="72" height="72"/>
			<rect x="1440" y="1296" class="st3" width="72" height="72"/>
		</g>
		<g>
			<rect x="1512" y="1296" class="st7" width="72" height="72"/>
			<rect x="1512" y="1296" class="st3" width="72" height="72"/>
		</g>
		<g>
			<rect x="1368" y="1296" class="st7" width="72" height="72"/>
			<rect x="1368" y="1296" class="st3" width="72" height="72"/>
		</g>
	</g>
</g>
<g>
	<rect x="1728" y="1224" transform="matrix(-1.836970e-16 1 -1 -1.836970e-16 3024 -504)" class="st0" width="72" height="72"/>
	<rect x="1728" y="1296" transform="matrix(-1.836970e-16 1 -1 -1.836970e-16 3096 -432)" class="st0" width="72" height="72"/>
	<rect x="1728" y="1152" transform="matrix(-1.836970e-16 1 -1 -1.836970e-16 2952 -576)" class="st0" width="72" height="72"/>
</g>
<g>
	<g>
		<g>
			<rect x="1800" y="1152" class="st8" width="72" height="72"/>
			<rect x="1800" y="1152" class="st3" width="72" height="72"/>
		</g>
		<g>
			<rect x="1872" y="1152" class="st8" width="72" height="72"/>
			<rect x="1872" y="1152" class="st3" width="72" height="72"/>
		</g>
		<g>
			<rect x="1728" y="1152" class="st8" width="72" height="72"/>
			<rect x="1728" y="1152" class="st3" width="72" height="72"/>
		</g>
	</g>
</g>
<g>
	<rect x="576" y="1728" transform="matrix(-1.836970e-16 1 -1 -1.836970e-16 2376 1152)" class="st0" width="72" height="72"/>
	<rect x="576" y="1800" transform="matrix(-1.836970e-16 1 -1 -1.836970e-16 2448 1224)" class="st0" width="72" height="72"/>
	<rect x="576" y="1656" transform="matrix(-1.836970e-16 1 -1 -1.836970e-16 2304 1080)" class="st0" width="72" height="72"/>
</g>
<g>
	<g>
		<g>
			<rect x="504" y="1728" class="st4" width="72" height="72"/>
			<rect x="504" y="1728" class="st3" width="72" height="72"/>
		</g>
		<g>
			<rect x="576" y="1728" class="st4" width="72" height="72"/>
			<rect x="576" y="1728" class="st3" width="72" height="72"/>
		</g>
		<g>
			<rect x="432" y="1728" class="st4" width="72" height="72"/>
			<rect x="432" y="1728" class="st3" width="72" height="72"/>
		</g>
	</g>
</g>
<g>
	<rect x="1008" y="1728" transform="matrix(-1.836970e-16 1 -1 -1.836970e-16 2808 720)" class="st0" width="72" height="72"/>
	<rect x="1008" y="1800" transform="matrix(-1.836970e-16 1 -1 -1.836970e-16 2880 792)" class="st0" width="72" height="72"/>
	<rect x="1008" y="1656" transform="matrix(-1.836970e-16 1 -1 -1.836970e-16 2736 648)" class="st0" width="72" height="72"/>
</g>
<g>
	<g>
		<g>
			<rect x="1008" y="1728" class="st2" width="72" height="72"/>
			<rect x="1008" y="1728" class="st3" width="72" height="72"/>
		</g>
		<g>
			<rect x="1080" y="1728" class="st2" width="72" height="72"/>
			<rect x="1080" y="1728" class="st3" width="72" height="72"/>
		</g>
		<g>
			<rect x="936" y="1728" class="st2" width="72" height="72"/>
			<rect x="936" y="1728" class="st3" width="72" height="72"/>
		</g>
	</g>
</g>
<g>
	<rect x="1368" y="1728" transform="matrix(-1.836970e-16 1 -1 -1.836970e-16 3168 360)" class="st0" width="72" height="72"/>
	<rect x="1368" y="1800" transform="matrix(-1.836970e-16 1 -1 -1.836970e-16 3240 432)" class="st0" width="72" height="72"/>
	<rect x="1368" y="1656" transform="matrix(-1.836970e-16 1 -1 -1.836970e-16 3096 288)" class="st0" width="72" height="72"/>
</g>
<g>
	<g>
		<g>
			<rect x="1368" y="1728" class="st7" width="72" height="72"/>
			<rect x="1368" y="1728" class="st3" width="72" height="72"/>
		</g>
		<g>
			<rect x="1440" y="1728" class="st7" width="72" height="72"/>
			<rect x="1440" y="1728" class="st3" width="72" height="72"/>
		</g>
		<g>
			<rect x="1296" y="1728" class="st7" width="72" height="72"/>
			<rect x="1296" y="1728" class="st3" width="72" height="72"/>
		</g>
	</g>
</g>
<g>
	
		<rect x="1728" y="1728" transform="matrix(-1.836970e-16 1 -1 -1.836970e-16 3528 3.230753e-09)" class="st0" width="72" height="72"/>
	<rect x="1728" y="1800" transform="matrix(-1.836970e-16 1 -1 -1.836970e-16 3600 72)" class="st0" width="72" height="72"/>
	<rect x="1728" y="1656" transform="matrix(-1.836970e-16 1 -1 -1.836970e-16 3456 -72)" class="st0" width="72" height="72"/>
</g>
<g>
	<g>
		<g>
			<rect x="1728" y="1728" class="st8" width="72" height="72"/>
			<rect x="1728" y="1728" class="st3" width="72" height="72"/>
		</g>
		<g>
			<rect x="1800" y="1728" class="st8" width="72" height="72"/>
			<rect x="1800" y="1728" class="st3" width="72" height="72"/>
		</g>
		<g>
			<rect x="1656" y="1728" class="st8" width="72" height="72"/>
			<rect x="1656" y="1728" class="st3" width="72" height="72"/>
		</g>
	</g>
</g>
<g>
	<g>
		<path class="st3" d="M297,1152c29.9,0,54.6,22.5,58.1,51.4"/>
		<g>
			<polygon points="355.5,1210.5 350.7,1200.9 354.9,1202.9 358.8,1200.3 			"/>
		</g>
	</g>
</g>
<g>
	<rect x="216" y="1728" transform="matrix(-1.836970e-16 1 -1 -1.836970e-16 2016 1512)" class="st0" width="72" height="72"/>
	<rect x="216" y="1800" transform="matrix(-1.836970e-16 1 -1 -1.836970e-16 2088 1584)" class="st0" width="72" height="72"/>
	<rect x="216" y="1656" transform="matrix(-1.836970e-16 1 -1 -1.836970e-16 1944 1440)" class="st0" width="72" height="72"/>
</g>
<g>
	<rect x="216" y="1728" class="st1" width="72" height="72"/>
	<rect x="288" y="1728" class="st1" width="72" height="72"/>
	<rect x="144" y="1728" class="st1" width="72" height="72"/>
</g>
<g>
	<rect x="216" y="720" class="st0" width="72" height="72"/>
	<rect x="288" y="720" class="st0" width="72" height="72"/>
	<rect x="144" y="720" class="st0" width="72" height="72"/>
</g>
<g>
	<rect x="216" y="720" transform="matrix(-1.836970e-16 1 -1 -1.836970e-16 1008 504)" class="st1" width="72" height="72"/>
	<rect x="216" y="792" transform="matrix(-1.836970e-16 1 -1 -1.836970e-16 1080 576)" class="st1" width="72" height="72"/>
	<rect x="216" y="648" transform="matrix(-1.836970e-16 1 -1 -1.836970e-16 936 432)" class="st1" width="72" height="72"/>
</g>
<g>
	<rect x="576" y="720" class="st0" width="72" height="72"/>
	<rect x="648" y="720" class="st0" width="72" height="72"/>
	<rect x="504" y="720" class="st0" width="72" height="72"/>
</g>
<g>
	<rect x="1008" y="720" class="st0" width="72" height="72"/>
	<rect x="1080" y="720" class="st0" width="72" height="72"/>
	<rect x="936" y="720" class="st0" width="72" height="72"/>
</g>
<g>
	<rect x="1368" y="720" class="st0" width="72" height="72"/>
	<rect x="1440" y="720" class="st0" width="72" height="72"/>
	<rect x="1296" y="720" class="st0" width="72" height="72"/>
</g>
<g>
	<rect x="1728" y="720" class="st0" width="72" height="72"/>
	<rect x="1800" y="720" class="st0" width="72" height="72"/>
	<rect x="1656" y="720" class="st0" width="72" height="72"/>
</g>
<g>
	<rect x="576" y="648" transform="matrix(-1.836970e-16 1 -1 -1.836970e-16 1296 72)" class="st9" width="72" height="72"/>
	<rect x="576" y="720" transform="matrix(-1.836970e-16 1 -1 -1.836970e-16 1368 144)" class="st9" width="72" height="72"/>
	
		<rect x="576" y="576" transform="matrix(-1.836970e-16 1 -1 -1.836970e-16 1224 1.136868e-13)" class="st9" width="72" height="72"/>
</g>
<g>
	<rect x="1008" y="792" transform="matrix(-1.836970e-16 1 -1 -1.836970e-16 1872 -216)" class="st10" width="72" height="72"/>
	<rect x="1008" y="864" transform="matrix(-1.836970e-16 1 -1 -1.836970e-16 1944 -144)" class="st10" width="72" height="72"/>
	<rect x="1008" y="720" transform="matrix(-1.836970e-16 1 -1 -1.836970e-16 1800 -288)" class="st10" width="72" height="72"/>
</g>
<rect x="576" y="792" class="st5" width="72" height="72"/>
<rect x="504" y="1224" class="st5" width="72" height="72"/>
<rect x="1656" y="1224" class="st5" width="72" height="72"/>
<rect x="1440" y="1224" class="st5" width="72" height="72"/>
<rect x="1512" y="1224" class="st5" width="72" height="72"/>
<rect x="1800" y="1224" class="st5" width="72" height="72"/>
<rect x="1872" y="1224" class="st5" width="72" height="72"/>
<rect x="1800" y="1296" class="st5" width="72" height="72"/>
<rect x="1080" y="1224" class="st5" width="72" height="72"/>
<rect x="648" y="1728" class="st5" width="72" height="72"/>
<rect x="1368" y="792" class="st5" width="72" height="72"/>
<rect x="1008" y="648" class="st5" width="72" height="72"/>
<g>
	<rect x="1296" y="648" transform="matrix(-1.836970e-16 1 -1 -1.836970e-16 2016 -648)" class="st6" width="72" height="72"/>
	<rect x="1296" y="720" transform="matrix(-1.836970e-16 1 -1 -1.836970e-16 2088 -576)" class="st6" width="72" height="72"/>
	<rect x="1296" y="576" transform="matrix(-1.836970e-16 1 -1 -1.836970e-16 1944 -720)" class="st6" width="72" height="72"/>
</g>
<rect x="1368" y="576" class="st5" width="72" height="72"/>
<rect x="1368" y="648" class="st5" width="72" height="72"/>
<rect x="1728" y="792" class="st5" width="72" height="72"/>
<rect x="1656" y="792" class="st5" width="72" height="72"/>
<rect x="1728" y="576" class="st5" width="72" height="72"/>
<rect x="1728" y="648" class="st5" width="72" height="72"/>
<g>
	<g>
		<path class="st3" d="M360,711c0-29.9-22.5-54.6-51.4-58.1"/>
		<g>
			<polygon points="301.5,652.5 311.7,649.2 309.1,653.1 311.1,657.3 			"/>
		</g>
	</g>
</g>
<g>
	<g>
		<path class="st3" d="M207,1656c-29.9,0-54.6,22.5-58.1,51.4"/>
		<g>
			<polygon points="148.5,1714.5 145.2,1704.3 149.1,1706.9 153.3,1704.9 			"/>
		</g>
	</g>
</g>
<g>
	<rect x="1800" y="144" transform="matrix(-1.836970e-16 1 -1 -1.836970e-16 2016 -1656)" class="st11" width="72" height="72"/>
	<rect x="1800" y="216" transform="matrix(-1.836970e-16 1 -1 -1.836970e-16 2088 -1584)" class="st11" width="72" height="72"/>
	<rect x="1800" y="72" transform="matrix(-1.836970e-16 1 -1 -1.836970e-16 1944 -1728)" class="st11" width="72" height="72"/>
</g>
<g>
	<rect x="1656" y="648" transform="matrix(-1.836970e-16 1 -1 -1.836970e-16 2376 -1008)" class="st11" width="72" height="72"/>
	<rect x="1656" y="720" transform="matrix(-1.836970e-16 1 -1 -1.836970e-16 2448 -936)" class="st11" width="72" height="72"/>
	<rect x="1656" y="576" transform="matrix(-1.836970e-16 1 -1 -1.836970e-16 2304 -1080)" class="st11" width="72" height="72"/>
</g>
</svg>
